<svg xmlns="http://www.w3.org/2000/svg" width="480.56" height="787.86" viewBox="0 0 480.56 787.86">
  <defs>
    <style>
      .cls-1 {
        fill: #fff;
      }
    </style>
  </defs>
  <title>Asset 1</title>
  <g id="Layer_2" data-name="Layer 2">
    <g id="Shapes">
      <path class="cls-1" d="M410.18,377.67a239.5,239.5,0,0,0-169.9-70.37,67,67,0,1,1,67-67c0,1.11,0,2.24.06,3.34.54,14.27,6.1,26.23,16.06,34.6A48.9,48.9,0,0,0,355,289.3h.87a50,50,0,0,0,32.61-12.36,45.41,45.41,0,0,0,5-5.23,46,46,0,0,0,5.27,5.84,49.85,49.85,0,0,0,32.17,13,49,49,0,0,0,32.55-10.28c10.13-8.09,16-19.85,16.95-34,.13-2,.2-4,.2-6A240.1,240.1,0,0,0,240.29,0h0A240.2,240.2,0,0,0,70.37,410.17a239.52,239.52,0,0,0,169.91,70.39,67,67,0,1,1-67,67c0-1.11,0-2.24-.06-3.34-.54-14.25-6.12-26.21-16.11-34.59a49.26,49.26,0,0,0-32.46-11.08,49.84,49.84,0,0,0-32.49,12.22,45.14,45.14,0,0,0-5.07,5.29,45.48,45.48,0,0,0-5.2-5.76,49.87,49.87,0,0,0-32.17-13,48.94,48.94,0,0,0-32.55,10.28C7,515.68,1.16,527.45.2,541.62c-.13,2-.2,4-.2,6A240.1,240.1,0,0,0,240.28,787.86h.1a240.21,240.21,0,0,0,169.8-410.19Zm-305,147.78a30.67,30.67,0,0,1,19.75-7.27,29.59,29.59,0,0,1,19.57,6.51c5.72,4.78,8.78,11.61,9.11,20.29,0,.86.05,1.74.05,2.6A86.68,86.68,0,1,0,240.28,461,220.73,220.73,0,0,1,154.45,37,220.58,220.58,0,0,1,461,240.28c0,1.55-.05,3.12-.16,4.65-.58,8.66-3.82,15.4-9.62,20a29.36,29.36,0,0,1-19.55,6,30.66,30.66,0,0,1-19.55-7.76c-5.63-5.25-8.43-12.39-8.34-21.24V240.6c0-.11,0-.21,0-.32s0-.08,0-.12v-1.44a2.44,2.44,0,0,0,0-.27c0-.35,0-.7,0-1.06s0-.64,0-1,0-.86,0-1.28c0-.24,0-.48,0-.71l-.06-1.63c0-.11,0-.22,0-.33A163.31,163.31,0,0,0,249.12,77.06h0L247.36,77l-.52,0-1.32,0-.87,0-1.06,0-1.07,0h-5.19l-.94,0-1,0-1,0-.86,0-1.28,0-.57,0-1.6.09-.19,0A163.3,163.3,0,0,0,76.89,235.55c0,.15,0,.3,0,.45l0,1.27c0,.23,0,.46,0,.69v.11c0,.39,0,.79,0,1.19v.9s0,.08,0,.12c0,.28,0,.56,0,.84s0,.77,0,1.15,0,.48,0,.72c0,.46,0,.91,0,1.37,0,.16,0,.32,0,.48,0,.53,0,1.07,0,1.61a1.69,1.69,0,0,0,0,.23,163,163,0,0,0,3,25.88,2.38,2.38,0,0,1,0,.26l.27,1.29.15.72c.08.33.15.66.22,1s.15.68.23,1l.18.78c.1.41.19.81.29,1.22,0,.21.11.42.16.63.11.46.22.91.34,1.36,0,.18.09.36.14.53.12.49.25,1,.38,1.46l.12.45c.14.51.28,1,.43,1.53,0,.14.07.27.11.41.15.52.3,1,.46,1.56l.12.39c.15.53.31,1,.47,1.57,0,.14.09.27.13.4.16.52.32,1,.49,1.56.05.14.09.28.14.41l.51,1.53.15.46c.17.49.34,1,.52,1.48l.18.52.51,1.4c.07.2.15.4.22.61.17.43.33.87.49,1.3.09.24.19.48.28.71.15.4.3.8.46,1.19l.33.84c.15.35.29.7.43,1.05,0,.06.05.12.07.17.12.31.25.61.38.91s.17.43.26.64l.06.12c.16.38.32.77.49,1.15.09.21.19.43.28.65l.57,1.28.23.51.63,1.38.18.4.69,1.45a3.18,3.18,0,0,0,.16.32c.23.5.48,1,.72,1.49l.14.28.75,1.49c.05.09.09.18.13.27l.78,1.49.13.26c.26.49.52,1,.79,1.47,0,.09.09.18.14.27l.79,1.43.16.3c.26.46.52.92.79,1.38a3.72,3.72,0,0,0,.19.34c.25.45.51.89.77,1.33.08.13.15.26.23.38l.75,1.27.26.43.75,1.21.29.48.72,1.14.35.54.69,1.07.39.6c.22.34.44.67.67,1l.44.66.63.93.49.71.61.87.54.76.58.81.59.81.55.74.63.86.53.69.68.9.5.64.72.93.49.6c.25.32.5.64.76.95s.31.39.46.58l.8,1,.46.54.82,1,.45.53.85,1,.46.52.85,1,.47.53.86.94.5.55.84.9.54.58.81.85.6.62.77.79.27.28.39.39.42.42.3.3.73.72.67.66.79.76.63.6.85.8.57.54.91.83.54.49.95.85.52.46,1,.87.5.42c.33.3.67.59,1,.87l.48.41,1,.87.47.39,1.07.86.47.38,1.07.86.47.37,1.08.84.49.36,1.08.82.49.37,1.09.8.51.37,1.08.78.53.38,1.07.74.56.39,1.05.72.59.4,1,.69.63.41,1,.65.67.43,1,.62.71.43c.31.2.63.4,1,.59l.74.45.93.56.78.46.91.53.82.47.89.5.85.47.87.48.88.48.85.45.92.48.82.43.95.48.81.41,1,.47.81.4,1,.47.81.38,1,.46.81.37,1,.44.83.38,1,.41.61.27.25.11.28.12.69.28.95.4.93.37,1,.4.89.35,1,.4.85.32,1.08.4.82.3,1.11.4.79.27,1.16.4.75.25,1.2.39.72.24,1.23.39.69.21,1.27.38.66.19,1.31.38.64.18,1.32.36.63.17,1.35.35.61.15,1.37.34.59.14c.47.12.93.23,1.4.33l.58.13,1.41.31.57.13,1.42.29.57.11,1.44.28.56.11,1.44.26.58.1,1.43.24.59.09,1.43.23.6.09,1.42.2.61.08,1.41.19.65.07,1.38.17.68.07,1.36.14.71.07,1.33.12.75.06,1.29.11.81.05,1.24.09.88.05,1.18.06,1,0,1.1.05,1.08,0,1,0,1.3,0h.77l2.08,0A144,144,0,0,1,373.39,493c.92,2.25,1.79,4.51,2.59,6.79A143.88,143.88,0,1,1,96.44,547.58V546.3C96.53,537.53,99.46,530.51,105.17,525.45ZM443.61,633.39A220.58,220.58,0,0,1,240.38,768.25h-.1A220.49,220.49,0,0,1,19.61,547.58c0-1.55.05-3.11.16-4.64.58-8.66,3.82-15.4,9.62-20a29.41,29.41,0,0,1,19.55-6,30.63,30.63,0,0,1,19.55,7.77c5.63,5.24,8.43,12.38,8.34,21.23v.32c0,.45,0,.91,0,1.36A162.35,162.35,0,0,0,89.9,611.74q2.75,6.43,6,12.57c.93,1.76,1.9,3.49,2.89,5.21.66,1.14,1.34,2.27,2,3.4A164.76,164.76,0,0,0,150.18,684l1.65,1.08a162.93,162.93,0,0,0,26.37,13.75l.36.15,1.52.61.73.28,1.16.46.79.29,1.12.42.81.3,1.1.39.82.29,1.1.38.82.27,1.1.37.82.26,1.11.35.82.25,1.12.35.82.24,1.13.32.8.23,1.16.32.79.21,1.17.31.78.2,1.19.29.77.19,1.2.28.76.18,1.23.27.74.16,1.25.26.73.15,1.27.25.71.13,1.3.24.69.12,1.32.23.67.11,1.36.21.64.1,1.39.2.62.08,1.43.19.58.07c.49.07,1,.12,1.49.18l.52.06,1.56.17.46,0,1.66.16.37,0,1.81.14.22,0q4.09.3,8.24.4h.33c.57,0,1.13,0,1.7,0h4.24a161.32,161.32,0,0,0,62.18-13.32,165,165,0,0,0,85.62-85.62,163.1,163.1,0,0,0-33.73-179.27c-1.88-1.91-3.8-3.76-5.76-5.57a162.79,162.79,0,0,0-46.47-30c-1.27-.54-2.54-1.07-3.82-1.58a162.51,162.51,0,0,0-60.34-11.5h-2.54l-1.11,0-.88,0-.94,0-.94,0-.87,0-1-.05-.79-.05-1.07-.07-.74,0-1.1-.09-.7-.05-1.13-.11-.66-.06-1.17-.12-.62-.07-1.19-.14-.6-.07-1.2-.16-.59-.08-1.2-.17-.57-.08-1.21-.19-.57-.09-1.21-.21-.56-.09-1.21-.22-.56-.11-1.2-.23-.56-.11-1.19-.25-.56-.12-1.19-.26-.57-.13-1.16-.27-.58-.14-1.15-.28-.6-.15-1.13-.3-.61-.16-1.11-.3-.62-.18-1.08-.31-.65-.19-1.06-.32-.66-.2-1-.33-.69-.22c-.34-.1-.67-.22-1-.33l-.72-.23-1-.34-.73-.25-.95-.34-.76-.28-.91-.34-.78-.29-.88-.34-.82-.32-.84-.34-.84-.34-.81-.33-.88-.37-.74-.32-.87-.38-.72-.32-.88-.39-.71-.33-.88-.41-.7-.33-.87-.42-.71-.34-.85-.42-.72-.36-.83-.43-.73-.37c-.27-.14-.54-.28-.8-.43l-.75-.39-.78-.42-.77-.43-.74-.41-.79-.45-.71-.4-.81-.47-.67-.4-.85-.5-.63-.38-.86-.53-.6-.38-.89-.56-.56-.36c-.31-.19-.61-.39-.91-.59l-.53-.34-.93-.62-.5-.34-.95-.65-.47-.32-1-.67-.45-.32-1-.7-.43-.31-1-.72-.41-.31-1-.74-.39-.31-1-.75-.39-.31-1-.77-.39-.32-1-.77-.39-.33-.94-.78-.4-.34-.92-.78-.41-.37-.89-.77-.43-.39-.85-.76-.47-.43-.81-.74-.49-.46-.76-.72-.54-.51-.71-.68-.58-.57-.65-.64-.63-.64-.58-.59-.68-.69-.53-.55-.71-.75-.48-.51c-.25-.26-.49-.52-.73-.79l-.45-.48-.75-.82-.42-.48-.74-.84-.42-.47c-.24-.28-.49-.56-.73-.85s-.27-.32-.41-.47l-.71-.85-.42-.5c-.23-.28-.46-.55-.69-.84l-.42-.51-.66-.82c-.14-.19-.29-.37-.43-.55l-.63-.8-.45-.59c-.2-.25-.39-.51-.59-.77l-.48-.63-.54-.73c-.17-.22-.33-.45-.5-.68l-.5-.69-.53-.73-.46-.65-.55-.78-.41-.61-.58-.84-.37-.55-.6-.91-.33-.5c-.21-.32-.42-.64-.62-1l-.29-.46-.65-1-.25-.41-.66-1.08c-.08-.12-.15-.24-.22-.36-.23-.38-.45-.76-.68-1.13-.06-.11-.12-.22-.19-.33-.23-.39-.46-.78-.68-1.18l-.17-.29-.69-1.22-.15-.27q-.34-.61-.69-1.26l-.13-.24L113,307.3l-.12-.23-.68-1.3-.12-.25-.65-1.3-.14-.27c-.21-.42-.42-.85-.62-1.28l-.15-.32c-.2-.41-.4-.83-.59-1.24l-.18-.39-.54-1.18c-.08-.16-.15-.33-.22-.49l-.48-1.08-.28-.64-.4-.94c-.11-.25-.21-.49-.31-.74l-.37-.88-.39-1c-.09-.23-.19-.45-.28-.68L106,292c-.07-.2-.15-.39-.23-.59-.15-.39-.29-.78-.44-1.18-.06-.16-.12-.33-.19-.5l-.45-1.25-.15-.44c-.16-.44-.31-.87-.45-1.3,0-.14-.1-.27-.14-.41l-.45-1.34-.12-.37c-.15-.45-.29-.9-.43-1.36l-.12-.36c-.14-.45-.28-.91-.41-1.37,0-.12-.07-.24-.11-.36l-.39-1.35c0-.13-.08-.25-.11-.38-.13-.44-.25-.88-.37-1.31,0-.15-.08-.29-.11-.43-.12-.42-.22-.84-.33-1.26,0-.16-.09-.33-.13-.49-.1-.39-.2-.78-.29-1.17l-.15-.59-.24-1c-.06-.24-.12-.48-.17-.72s-.13-.57-.19-.85l-.21-.91-.12-.59-.24-1.18a1.16,1.16,0,0,1,0-.18,143.17,143.17,0,0,1-2.62-21.14v-.07L96.55,246a2.62,2.62,0,0,1,0-.28c0-.45,0-.91-.05-1.37,0-.15,0-.31,0-.46,0-.4,0-.79,0-1.19,0-.22,0-.43,0-.65s0-.67,0-1v-1.65c0-.35,0-.69,0-1s0-.48,0-.72,0-.73,0-1.1c0-.14,0-.28,0-.42a141.8,141.8,0,0,1,11.66-52.52,145.37,145.37,0,0,1,75.41-75.41,141.59,141.59,0,0,1,47.55-11.44h.06l1.49-.08.44,0,1.18,0,.7,0,1,0,.87,0,.87,0h4.36a141.73,141.73,0,0,1,52.82,10.85,145.54,145.54,0,0,1,77.36,76A141.35,141.35,0,0,1,384,233.42c0,.1,0,.19,0,.28,0,.48,0,1,0,1.43,0,.22,0,.44,0,.66s0,.72,0,1.09,0,.6,0,.9,0,.58,0,.88c0,.51,0,1,0,1.53v1.11c-.09,8.82-3,15.89-8.76,21a30.8,30.8,0,0,1-19.84,7.37A29.37,29.37,0,0,1,336,263.21c-5.69-4.79-8.75-11.63-9.08-20.33,0-.86,0-1.74,0-2.6a86.68,86.68,0,1,0-86.63,86.63A220.72,220.72,0,0,1,443.61,633.39Z"/>
    </g>
  </g>
</svg>
